Coordinates
version=1
nRows=17
nColumns=34
inDegrees=yes

Units are S.I. units (second, meters, Newtons, ...)
If the header above contains a line with 'inDegrees', this indicates whether rotational values are in degrees (yes) or radians (no).

endheader
time	pelvis_tilt	pelvis_list	pelvis_rotation	pelvis_tx	pelvis_ty	pelvis_tz	hip_flexion_l	hip_adduction_l	hip_rotation_l	hip_flexion_r	hip_adduction_r	hip_rotation_r	knee_angle_l_beta	knee_angle_r_beta	knee_angle_l	knee_angle_r	ankle_angle_l	ankle_angle_r	subtalar_angle_l	subtalar_angle_r	mtp_angle_l	mtp_angle_r	lumbar_ext	lumbar_bend	lumbar_rota	shoulder_flexion_r	shoulder_adduction_r	shoulder_rotation_r	elbow_flexion_r	shoulder_flexion_l	shoulder_adduction_l	shoulder_rotation_l	elbow_flexion_l
      0.44000000	     21.10146216	     -1.67148279	     -4.67323981	     -0.61541896	      0.97274418	      0.26624800	    -34.99874419	      5.28668493	      5.63351410	      1.34742001	      1.30497378	     -0.57665129	     -0.12111846	      0.43049632	      6.93957635	    -24.66562237	      3.72229497	     10.29644492	     -5.38881997	      4.48837877	    -12.85267113	    -19.52527391	    -38.41234665	     -0.90355438	      6.01564275	     -4.69282271	      5.33593967	    -42.59062491	     45.85342305	     15.75008411	      3.36662597	    -15.41858505	     54.23699849
      0.45000000	     21.70163001	     -2.00430342	     -4.16327445	     -0.60328489	      0.97195242	      0.26636438	    -36.52465221	      4.81972252	      5.35161241	      0.07060856	      1.69033817	     -1.49524041	     -0.12303400	      0.35368978	      7.04932917	    -20.26493165	      4.22086384	     10.00998195	     -4.83837132	      6.07841193	    -12.49832819	    -19.20984045	    -38.90227696	     -0.38299672	      6.00857625	     -5.09943218	      5.56620571	    -42.97838729	     45.71456686	     16.36218936	      3.44894488	    -14.28231648	     55.33931179
      0.46000000	     22.26611443	     -2.25150366	     -3.72019786	     -0.59120323	      0.97091313	      0.26671934	    -37.97348497	      4.43932849	      4.93657876	     -1.21166512	      2.05966002	     -2.23246321	     -0.12399329	      0.27784197	      7.10429216	    -15.91917234	      4.78364761	      9.59887303	     -3.91734525	      7.73362682	    -11.94139670	    -18.55818096	    -39.36598233	      0.00112877	      6.15980478	     -5.55843942	      5.84416915	    -43.45215051	     45.68845816	     17.07015671	      3.56049347	    -13.06012520	     56.25484221
      0.47000000	     22.79841339	     -2.40154734	     -3.36554994	     -0.57897690	      0.96965792	      0.26731756	    -39.33419914	      4.18794115	      4.30635547	     -2.46696835	      2.37525647	     -2.76730880	     -0.12266142	      0.20566255	      7.02798174	    -11.78359590	      5.51612107	      9.03629580	     -2.85770996	      9.42828974	    -11.09390632	    -17.49993556	    -39.75610330	      0.24305436	      6.34606485	     -6.01477747	      6.12643683	    -44.03924036	     45.57414443	     17.72934236	      3.61162087	    -11.69088756	     57.14045331
      0.48000000	     23.18289089	     -2.43154133	     -3.08667945	     -0.56677449	      0.96814206	      0.26800945	    -40.48369239	      4.05990867	      3.84334454	     -3.54485721	      2.61354321	     -2.93974051	     -0.11982785	      0.13853637	      6.86563032	     -7.93754946	      6.11562367	      8.45079673	     -1.98141150	     10.76803785	    -10.39500150	    -16.84081671	    -40.00667613	      0.34790546	      6.41366948	     -6.38069282	      6.37421177	    -44.46042091	     45.35070488	     18.30201683	      3.65324041	    -10.49582171	     58.06485211
      0.49000000	     23.41973561	     -2.33660726	     -2.94548371	     -0.55460598	      0.96640681	      0.26900519	    -41.38946933	      4.09261172	      3.44513104	     -4.39427035	      2.73808621	     -2.80485453	     -0.11382309	      0.07919264	      6.52158290	     -4.53740377	      6.70202312	      7.87026091	     -1.29254422	     11.84336970	     -9.85696821	    -16.55230193	    -40.11455474	      0.25522776	      6.47658217	     -6.67939495	      6.61309482	    -44.86586239	     44.99414795	     18.81162963	      3.64964726	     -9.36966888	     59.03698894
      0.50000000	     23.74448399	     -2.40111364	     -2.71819088	     -0.54210310	      0.96471178	      0.26990873	    -42.41149610	      3.92530397	      2.67141943	     -5.37206026	      3.02767141	     -2.77360181	     -0.10784034	      0.02591455	      6.17879637	     -1.48479408	      7.49526543	      7.33992597	      0.24148602	     12.95443338	     -8.74436379	    -15.67868606	    -40.28610830	      0.35762431	      6.75572366	     -7.13124751	      6.88252905	    -45.42530000	     44.99507555	     19.37946595	      3.76159098	     -8.20235970	     59.63472820
      0.51000000	     23.62710477	     -2.20457674	     -2.74815493	     -0.52978761	      0.96267308	      0.27100941	    -42.84842013	      4.12128964	      2.51521606	     -5.72062413	      3.01625423	     -2.13040379	     -0.09860580	     -0.01607959	      5.64969599	      0.92129252	      7.91243257	      7.08853068	      0.28688231	     13.60738836	     -8.55479051	    -15.79695721	    -40.04917406	      0.16684888	      6.63077996	     -7.27525466	      7.05404601	    -45.65161622	     44.54702237	     19.64914241	      3.67918836	     -7.37943880	     60.48910778
      0.52000000	     24.08790902	     -2.25352647	     -2.35714179	     -0.51731661	      0.96155829	      0.27175082	    -43.85641221	      3.83264127	      2.10632390	     -6.80127856	      3.30772782	     -2.22773548	     -0.08678176	     -0.05355573	      4.97222863	      3.06851752	      8.46672514	      6.36062689	      1.53645338	     13.86045412	     -8.07267401	    -15.78272226	    -40.42881769	      0.33438482	      6.63574845	     -7.53922484	      7.24008752	    -45.99737814	     44.21774063	     20.03805177	      3.74122894	     -6.47857632	     61.32193442
      0.53000000	     24.24562031	     -2.38502465	     -2.19626560	     -0.50460858	      0.96018767	      0.27274112	    -44.50807178	      3.60421750	      1.48435224	     -7.44456549	      3.66366876	     -2.09756803	     -0.07325449	     -0.07955320	      4.19717330	      4.55806243	      9.04005840	      5.92022330	      2.71942626	     14.26056853	     -7.58259871	    -15.60865015	    -40.49914481	      0.50325387	      6.78386937	     -7.77558377	      7.37533558	    -46.34564356	     43.88830232	     20.29670911	      3.79148362	     -5.68050768	     61.98517117
      0.54000000	     24.20453425	     -2.49945159	     -2.17373415	     -0.49191823	      0.95886640	      0.27386795	    -44.88826717	      3.46805242	      1.19567080	     -7.74958284	      3.97729634	     -1.86200042	     -0.05789551	     -0.09428190	      3.31716835	      5.40195512	      9.23535800	      5.63467578	      2.89548060	     14.55730622	     -7.43155749	    -15.58132476	    -40.39281060	      0.60718224	      6.85917421	     -7.86778605	      7.42976547	    -46.55796668	     43.41381253	     20.38117199	      3.78862013	     -5.08964173	     62.69551826
      0.55000000	     24.26050655	     -2.74943189	     -2.01807776	     -0.47912500	      0.95799525	      0.27483465	    -45.28876108	      3.11987587	      0.86769124	     -8.15295417	      4.45352099	     -1.86518518	     -0.03949828	     -0.10161533	      2.26308452	      5.82212928	      9.30575234	      5.18492593	      3.31785051	     14.68962896	     -7.29297592	    -15.47267936	    -40.41835421	      0.90011760	      6.94491117	     -7.94178015	      7.45602462	    -46.75362671	     42.93108309	     20.42383637	      3.83073480	     -4.60455735	     63.35790335
      0.56000000	     24.48781185	     -3.30508433	     -1.71166113	     -0.46574403	      0.95757565	      0.27576260	    -45.88901214	      2.38405805	      0.12041038	     -8.82999270	      5.28547672	     -2.24651404	     -0.02006236	     -0.10527942	      1.14948849	      6.03206668	      9.73628674	      4.23283192	      5.01917580	     14.74701131	     -6.95894582	    -14.76556511	    -40.56562159	      1.55197872	      7.05001904	     -8.05641389	      7.47452755	    -46.92738160	     42.52170238	     20.28377062	      3.87736567	     -4.29870614	     63.94753774
      0.57000000	     24.49947619	     -3.86131187	     -1.61530971	     -0.45222273	      0.95717366	      0.27678352	    -46.14868302	      1.78388393	     -0.97225470	     -9.17132516	      6.05548628	     -2.40647110	      0.00319503	     -0.10025836	     -0.18306186	      5.74438103	      9.80552841	      3.34576444	      6.76697708	     14.84322506	     -6.38693426	    -12.88978489	    -40.50853429	      2.12831939	      7.23987819	     -8.12713115	      7.40535814	    -46.98742361	     42.07544231	     20.00769528	      3.94573295	     -4.17634611	     64.45958524
      0.58000000	     24.47291549	     -4.24934952	     -1.57352817	     -0.43889488	      0.95712807	      0.27785149	    -46.28066851	      1.34678896	     -0.95236240	     -9.44770290	      6.60747475	     -2.30651119	      0.02779213	     -0.08981620	     -1.59237196	      5.14608900	      9.04797093	      2.85661577	      6.87026767	     14.86082527	     -6.34214694	    -12.75526798	    -40.46663097	      2.54003496	      7.43032513	     -8.16335693	      7.35288781	    -47.09690470	     41.68731777	     19.76295035	      4.01684353	     -4.00332487	     64.74135317
      0.59000000	     24.43962878	     -4.97336366	     -1.40626308	     -0.42495567	      0.95737492	      0.27878979	    -46.27279630	      0.52215241	     -2.11796909	     -9.79862351	      7.53000627	     -2.68949152	      0.05874760	     -0.08028187	     -3.36598937	      4.59981231	      8.82180401	      0.86744054	      8.30089911	     14.52285974	     -4.70544710	     -8.70078363	    -40.36660005	      3.32152122	      7.47134492	     -8.07547408	      7.19610002	    -47.05855321	     41.04289409	     19.18417571	      4.03708011	     -4.17701848	     65.28132603
      0.60000000	     24.45093190	     -5.46333684	     -1.32080318	     -0.41130431	      0.95805785	      0.27975560	    -46.17857251	     -0.04920548	     -2.39188881	    -10.15699632	      8.15455396	     -2.77115688	      0.09257058	     -0.06484551	     -5.30390343	      3.71537414	      7.80691305	     -0.05485382	      8.54927742	     14.32502025	     -4.61673558	     -8.63490200	    -40.36281162	      3.84977044	      7.65762043	     -8.06202811	      7.08983800	    -47.14332895	     40.62237224	     18.75419747	      4.13498746	     -4.21480385	     65.39873746
